<?xml version="1.0" encoding="UTF-8" standalone="no"?>
<svg
   xmlns:dc="http://purl.org/dc/elements/1.1/"
   xmlns:cc="http://creativecommons.org/ns#"
   xmlns:rdf="http://www.w3.org/1999/02/22-rdf-syntax-ns#"
   xmlns:svg="http://www.w3.org/2000/svg"
   xmlns="http://www.w3.org/2000/svg"
   id="svg4502"
   version="1.1"
   viewBox="0 0 203.45554 213.08807"
   height="213.08807mm"
   width="203.45554mm">
  <defs
     id="defs4496" />
  <metadata
     id="metadata4499">
    <rdf:RDF>
      <cc:Work
         rdf:about="">
        <dc:format>image/svg+xml</dc:format>
        <dc:type
           rdf:resource="http://purl.org/dc/dcmitype/StillImage" />
        <dc:title></dc:title>
      </cc:Work>
    </rdf:RDF>
  </metadata>
  <g
     transform="translate(-5.1076363,-35.574148)"
     id="layer1">
    <path
       id="path5058"
       d="m 86.910898,247.08352 c 11.788135,-9.04781 4.55934,-37.58501 4.55934,-37.58501 C 82.209822,173.59077 58.964284,150.9122 58.964284,150.9122 22.489583,115.00446 11.339286,121.43006 11.339286,121.43006 c -14.5465203,14.40641 4.696886,60.37677 4.696886,60.37677 17.372519,35.27958 43.564933,53.72118 43.564933,53.72118 22.71791,16.83798 27.309793,11.55551 27.309793,11.55551 z"
       style="fill:none;stroke:#000000;stroke-width:1.58749998;stroke-linecap:round;stroke-linejoin:miter;stroke-miterlimit:4;stroke-dasharray:none;stroke-opacity:1" />
    <path
       id="path5060"
       d="M 86.910896,247.08352 99.958802,236.86435 C 111.71866,218.69003 97.286108,183.41045 97.286108,183.41045 82.853553,149.73449 57.462948,128.88746 57.462948,128.88746 29.132379,108.84225 22.45064,113.11856 22.45064,113.11856 l -11.111354,8.3115"
       style="fill:none;stroke:#000000;stroke-width:1.58749998;stroke-linecap:butt;stroke-linejoin:miter;stroke-miterlimit:4;stroke-dasharray:none;stroke-opacity:1" />
    <path
       id="path5062"
       d="M 99.958802,236.86435 196.4431,156.14896 c 18.17433,-23.78699 1.33635,-64.679227 1.33635,-64.679227 -17.37252,-37.150466 -54.79025,-51.04848 -54.79025,-51.04848 -10.15625,-5.61266 -18.4416,1.603618 -18.4416,1.603618 L 22.45064,113.11856"
       style="fill:none;stroke:#000000;stroke-width:1.58749998;stroke-linecap:butt;stroke-linejoin:miter;stroke-miterlimit:4;stroke-dasharray:none;stroke-opacity:1" />
    <path
       id="path5066"
       d="M 86.328056,116.05853 72.69731,125.68023 59.601105,114.72218 73.23185,104.83321 Z"
       style="fill:none;stroke:#000000;stroke-width:1.05833328;stroke-linecap:butt;stroke-linejoin:miter;stroke-miterlimit:4;stroke-dasharray:none;stroke-opacity:1" />
    <path
       id="path5070"
       d="m 57.262495,106.63728 3.875407,-3.14042 C 50.714393,97.616932 49.51168,98.485557 49.51168,98.485557 l -4.009044,2.939963 c 13.363477,4.54358 11.759859,5.21176 11.759859,5.21176 z"
       style="fill:none;stroke:#000000;stroke-width:1.05833328;stroke-linecap:butt;stroke-linejoin:miter;stroke-miterlimit:4;stroke-dasharray:none;stroke-opacity:1" />
    <path
       id="path5072"
       d="m 112.35342,121.33556 49.42039,-37.041663 -35.48896,-25.98229 c -1.46998,-1.236122 -2.63929,-0.217156 -2.63929,-0.217156 L 74.334337,93.140166 c -0.334086,0.217157 0.23386,0.501132 0.23386,0.501132 l 34.878673,27.645692 c 1.41987,1.06908 2.90655,0.0486 2.90655,0.0486 z"
       style="fill:none;stroke:#000000;stroke-width:1.58749998;stroke-linecap:butt;stroke-linejoin:round;stroke-miterlimit:4;stroke-dasharray:none;stroke-opacity:1" />
    <path
       id="path5074"
       d="m 161.77381,84.293897 2.58024,-1.861217 c 1.70385,-1.336347 0.25458,-2.957978 0.25458,-2.957978 C 149.96205,61.993303 140.13467,58.024553 140.13467,58.024553 126.62202,50.370536 124.82664,52.543897 124.82664,52.543897 L 72.760416,88.924105 c -1.41741,1.13393 -0.661459,2.173364 -0.661459,2.173364 l 2.46924,2.543829"
       style="fill:none;stroke:#000000;stroke-width:1.58749998;stroke-linecap:butt;stroke-linejoin:miter;stroke-miterlimit:4;stroke-dasharray:none;stroke-opacity:1" />
    <path
       id="path5076"
       d="m 124.82664,52.543897 -0.0869,5.066125"
       style="fill:none;stroke:#000000;stroke-width:1.05833328;stroke-linecap:butt;stroke-linejoin:miter;stroke-miterlimit:4;stroke-dasharray:none;stroke-opacity:1" />
    <path
       d="m 94.346141,96.322342 a 0.93544334,0.72663903 0 0 1 -0.908561,0.726339 0.93544334,0.72663903 0 0 1 -0.96078,-0.684593 0.93544334,0.72663903 0 0 1 0.853341,-0.765686 0.93544334,0.72663903 0 0 1 1.009825,0.640586"
       id="path5098"
       style="opacity:1;fill:#000000;fill-opacity:1;stroke:none;stroke-width:1.05833328;stroke-linecap:round;stroke-linejoin:round;stroke-miterlimit:4;stroke-dasharray:none;stroke-opacity:1" />
    <path
       id="path5100"
       d="m 93.427403,96.297288 -4.610399,3.290756"
       style="fill:none;stroke:#000000;stroke-width:0.79374999;stroke-linecap:round;stroke-linejoin:miter;stroke-miterlimit:4;stroke-dasharray:none;stroke-opacity:1" />
    <path
       id="path5102"
       d="m 93.143429,94.45981 c -2.171565,0.08352 -2.121451,1.536798 -2.121451,1.536798"
       style="fill:none;stroke:#000000;stroke-width:0.5291667;stroke-linecap:round;stroke-linejoin:miter;stroke-miterlimit:4;stroke-dasharray:none;stroke-opacity:1" />
    <path
       id="path5104"
       d="m 93.176838,93.156869 c -3.875408,0.116933 -3.641548,2.722809 -3.641548,2.722809 m 6.280836,0.618063 c -0.250565,1.603617 -2.121452,1.637026 -2.121452,1.637026"
       style="fill:none;stroke:#000000;stroke-width:0.5291667;stroke-linecap:round;stroke-linejoin:miter;stroke-miterlimit:4;stroke-dasharray:none;stroke-opacity:1" />
    <path
       id="path5106"
       d="m 97.519968,96.597966 c -0.467723,2.706103 -3.741772,2.706103 -3.741772,2.706103"
       style="fill:none;stroke:#000000;stroke-width:0.5291667;stroke-linecap:round;stroke-linejoin:miter;stroke-miterlimit:4;stroke-dasharray:none;stroke-opacity:1" />
    <path
       id="path5108"
       d="m 98.488819,91.970861 -0.100224,-3.77518 -2.037932,-1.637028 -5.144937,-0.300677 -0.100227,1.236122 5.712886,4.476763 z"
       style="fill:#000000;fill-opacity:1;stroke:none;stroke-width:0.26458332px;stroke-linecap:butt;stroke-linejoin:miter;stroke-opacity:1" />
    <path
       id="path5110"
       d="m 105.67169,79.108516 -9.387842,6.882191 -5.111531,-0.300678 -0.03341,-1.186008 11.826673,-8.586036 2.22168,0.250566 z"
       style="fill:#000000;fill-opacity:1;stroke:none;stroke-width:0.26458332px;stroke-linecap:butt;stroke-linejoin:miter;stroke-opacity:1" />
    <path
       id="path5112"
       d="m 106.05589,76.435822 0.46772,2.856442 1.9377,1.453279 3.87541,0.534538 -0.50113,-2.92326 -2.08804,-1.570209 z"
       style="fill:#000000;fill-opacity:1;stroke:none;stroke-width:0.26458332px;stroke-linecap:butt;stroke-linejoin:miter;stroke-opacity:1" />
    <path
       id="path5114"
       d="m 113.08842,81.330193 -0.53454,-2.756215 9.605,-6.99912 5.09482,0.283972 0.0334,1.236122 -11.74315,8.502513 z"
       style="fill:#000000;fill-opacity:1;stroke:none;stroke-width:0.26458332px;stroke-linecap:butt;stroke-linejoin:miter;stroke-opacity:1" />
    <path
       id="path5118"
       d="m 128.75709,74.063804 1.43658,0.08352 0.33408,3.925522 -9.57159,6.848782 -3.97563,-0.467723 -0.31738,-1.670433 z"
       style="fill:#000000;fill-opacity:1;stroke:none;stroke-width:0.26458332px;stroke-linecap:butt;stroke-linejoin:miter;stroke-opacity:1" />
    <path
       id="path5120"
       d="m 116.29565,84.854811 0.61806,2.939965 -9.52147,6.949006 -5.14494,-0.317381 0.0167,-1.236123 11.87679,-8.552624 z"
       style="fill:#000000;fill-opacity:1;stroke:none;stroke-width:0.26458332px;stroke-linecap:butt;stroke-linejoin:miter;stroke-opacity:1" />
    <path
       id="path5122"
       d="m 109.76425,100.84087 -0.26727,-3.958929 -2.05463,-1.603619 -5.22846,-0.400904 -0.0334,1.486686 5.82982,4.443356 z"
       style="fill:#000000;fill-opacity:1;stroke:none;stroke-width:0.26458332px;stroke-linecap:butt;stroke-linejoin:miter;stroke-opacity:1" />
    <path
       id="path5126"
       d="m 110.49924,100.85757 c 0,0 1.46999,0.10023 1.62032,0.0835 0.15034,-0.0167 11.84339,-8.519222 11.84339,-8.519222 l -0.30068,-1.737251 -3.79189,-0.551244 -9.52148,6.898897 z"
       style="fill:#000000;fill-opacity:1;stroke:none;stroke-width:0.26458332px;stroke-linecap:butt;stroke-linejoin:miter;stroke-opacity:1" />
    <path
       id="path5128"
       d="m 124.39726,90.11668 c 0.0835,0 2.33861,0.317381 2.33861,0.317381 l 11.97701,-8.636145 -0.0167,-1.169305 -5.16164,-0.35079 -9.65512,6.982415 z"
       style="fill:#000000;fill-opacity:1;stroke:none;stroke-width:0.26458332px;stroke-linecap:butt;stroke-linejoin:miter;stroke-opacity:1" />
    <path
       id="path5130"
       d="m 133.46772,79.726577 c 0,0 -2.27179,-1.570209 -2.23838,-1.637027 0.0334,-0.06682 -0.23386,-3.942225 -0.23386,-3.942225 l 1.78736,-0.0167 5.84652,4.46006 v 1.436574 z"
       style="fill:#000000;fill-opacity:1;stroke:none;stroke-width:0.26458332px;stroke-linecap:butt;stroke-linejoin:miter;stroke-opacity:1" />
    <path
       id="path5132"
       d="m 119.68663,65.511179 0.23386,3.841999 c 0,0 1.97112,1.620321 2.08805,1.620321 0.11693,0 5.27857,0.283975 5.27857,0.283975 v -1.403165 l -5.74629,-4.376539 z"
       style="fill:#000000;fill-opacity:1;stroke:none;stroke-width:0.26458332px;stroke-linecap:butt;stroke-linejoin:miter;stroke-opacity:1" />
    <path
       id="path5134"
       d="m 142.68852,86.825925 c 0,-0.08352 -0.28398,-3.942226 -0.21716,-3.942226 0.0668,0 1.78737,0.0167 1.78737,0.0167 l 6.01356,4.610399 0.0334,1.336346 -5.39551,-0.283972 z"
       style="fill:#000000;fill-opacity:1;stroke:none;stroke-width:0.26458332px;stroke-linecap:butt;stroke-linejoin:miter;stroke-opacity:1" />
    <path
       id="path5136"
       d="m 141.65285,82.883699 0.33408,4.075859 -9.6384,6.832079 -4.05916,-0.501132 -0.26727,-1.703842 12.17747,-8.68626 z"
       style="fill:#000000;fill-opacity:1;stroke:none;stroke-width:0.26458332px;stroke-linecap:butt;stroke-linejoin:miter;stroke-opacity:1" />
    <path
       id="path5138"
       d="m 132.26501,94.359583 2.17156,1.620322 0.56795,2.956668 -3.89211,-0.517834 -2.08805,-1.553504 -0.43431,-2.939965 z"
       style="fill:#000000;fill-opacity:1;stroke:none;stroke-width:0.26458332px;stroke-linecap:butt;stroke-linejoin:miter;stroke-opacity:1" />
    <path
       id="path5140"
       d="m 135.07134,99.537931 0.33408,1.737249 -12.07724,8.65285 -1.48669,-0.0501 -0.21715,-4.02575 9.6217,-6.848779 z"
       style="fill:#000000;fill-opacity:1;stroke:none;stroke-width:0.26458332px;stroke-linecap:butt;stroke-linejoin:miter;stroke-opacity:1" />
    <path
       id="path5142"
       d="m 120.7223,105.80206 0.3842,4.02575 -1.82077,-0.0835 -5.87993,-4.66052 0.0501,-1.21941 5.22846,0.35079 z"
       style="fill:#000000;fill-opacity:1;stroke:none;stroke-width:0.26458332px;stroke-linecap:butt;stroke-linejoin:miter;stroke-opacity:1" />
    <path
       d="m 112.6374,102.40273 a 1.0523738,0.74334335 0 0 1 -1.02214,0.74304 1.0523738,0.74334335 0 0 1 -1.08087,-0.70033 1.0523738,0.74334335 0 0 1 0.96,-0.78329 1.0523738,0.74334335 0 0 1 1.13606,0.65531"
       id="path5146"
       style="opacity:1;fill:#000000;fill-opacity:1;stroke:none;stroke-width:0.52916664;stroke-linecap:round;stroke-linejoin:round;stroke-miterlimit:4;stroke-dasharray:none;stroke-opacity:1" />
    <path
       id="path5148"
       d="m 196.4431,156.14896 2.6727,-2.47225 c 8.15172,-11.29213 8.39313,-24.87612 8.39313,-24.87612 2.45684,-32.127972 -13.22917,-52.727676 -13.22917,-52.727676 -28.15923,-37.419642 -53.67262,-39.687499 -53.67262,-39.687499 -7.9375,-0.377976 -16.05954,5.639456 -16.05954,5.639456"
       style="fill:none;stroke:#000000;stroke-width:1.58749998;stroke-linecap:butt;stroke-linejoin:miter;stroke-miterlimit:4;stroke-dasharray:none;stroke-opacity:1" />
    <path
       id="path5150"
       d="m 97.553377,143.38684 4.209493,-3.0736 -4.343129,-5.54584 4.610399,-3.34087 -4.009041,-4.40995 -4.409948,3.40768 -4.476766,-4.54358 -4.276312,3.00678 4.409948,4.54359 -4.744035,3.4745 3.808593,4.67722 5.078119,-3.34087 z"
       style="fill:none;stroke:#000000;stroke-width:1.05833328;stroke-linecap:butt;stroke-linejoin:miter;stroke-miterlimit:4;stroke-dasharray:none;stroke-opacity:1" />
    <path
       d="m 78.479243,115.19958 a 6.0424757,4.3785729 0 0 1 -5.868831,4.37676 6.0424757,4.3785729 0 0 1 -6.20614,-4.12521 6.0424757,4.3785729 0 0 1 5.512137,-4.61386 6.0424757,4.3785729 0 0 1 6.522947,3.86003"
       id="path5154"
       style="opacity:1;fill:none;fill-opacity:1;stroke:#000000;stroke-width:1.58749998;stroke-linecap:round;stroke-linejoin:round;stroke-miterlimit:4;stroke-dasharray:none;stroke-opacity:1" />
    <path
       id="path5158"
       d="M 103.96784,214.41371 204.99572,131.82743"
       style="fill:none;stroke:#000000;stroke-width:1.58749998;stroke-linecap:butt;stroke-linejoin:miter;stroke-miterlimit:4;stroke-dasharray:none;stroke-opacity:1" />
  </g>
</svg>
